<?xml version="1.0" standalone="no"?>
<!DOCTYPE svg PUBLIC "-//W3C//DTD SVG 20010904//EN"
 "http://www.w3.org/TR/2001/REC-SVG-20010904/DTD/svg10.dtd">
<svg version="1.0" xmlns="http://www.w3.org/2000/svg"
 width="941.000000pt" height="707.000000pt" viewBox="0 0 941.000000 707.000000"
 preserveAspectRatio="xMidYMid meet">

<g transform="translate(0.000000,707.000000) scale(0.100000,-0.100000)"
fill="#000000" stroke="none">
<path d="M515 6767 c-22 -13 -49 -40 -62 -62 l-23 -40 0 -2684 c0 -2658 0
-2685 20 -2725 11 -23 36 -52 57 -66 l37 -25 1525 -5 1526 -5 -1 -130 c-1 -71
-2 -205 -3 -297 l-1 -167 -314 -3 c-299 -3 -316 -4 -343 -24 -35 -25 -73 -98
-73 -140 0 -51 40 -115 90 -141 l43 -23 1616 0 c1554 0 1618 1 1657 19 81 37
115 139 72 220 -45 87 -37 86 -394 89 l-314 3 -1 167 c-1 92 -2 227 -3 300
l-1 132 408 0 407 0 0 170 0 170 -2840 -3 -2840 -2 0 2482 0 2483 3850 0 3850
0 0 -1020 0 -1020 165 0 165 0 0 1123 0 1122 -23 40 c-14 26 -37 48 -67 63
l-44 22 -4051 0 -4050 0 -40 -23z m4775 -5907 l0 -300 -680 0 -680 0 0 300 0
300 680 0 680 0 0 -300z"/>
<path d="M1174 6210 c-18 -4 -45 -17 -62 -28 -91 -65 -79 -225 21 -280 30 -16
123 -17 1400 -20 910 -1 1382 1 1407 8 23 6 52 26 73 49 62 69 62 155 -1 223
-24 26 -51 42 -77 48 -48 11 -2715 12 -2761 0z"/>
<path d="M4448 6210 c-72 -22 -118 -84 -118 -160 0 -58 26 -107 73 -138 40
-26 44 -27 230 -30 213 -4 255 4 301 59 78 93 35 236 -79 268 -46 13 -366 13
-407 1z"/>
</g>
</svg>
